<svg width="15" height="15" viewBox="0 0 15 15" fill="none" xmlns="http://www.w3.org/2000/svg">
<g id="logos:skype" clip-path="url(#clip0_1_657)">
<path id="Vector" d="M14.4691 8.73105C14.4643 8.75742 14.461 8.78408 14.456 8.81045L14.4304 8.65934C14.4444 8.68289 14.456 8.70738 14.4691 8.73111C14.5472 8.30758 14.5867 7.87783 14.5871 7.44715C14.5871 6.49102 14.3999 5.56336 14.0301 4.69014C13.6733 3.84662 13.1628 3.08906 12.5119 2.43867C11.862 1.78828 11.1039 1.27775 10.2609 0.920977C9.38789 0.551602 8.46029 0.364395 7.50416 0.364395C7.05357 0.364395 6.60217 0.406699 6.16295 0.491016C6.16201 0.49125 6.16084 0.49125 6.15961 0.491484C6.18434 0.504551 6.2093 0.516211 6.2335 0.529746L6.08455 0.506426C6.10951 0.501738 6.13471 0.496465 6.15961 0.491484C5.55703 0.171094 4.87922 0 4.1932 0C3.07324 0 2.02014 0.436113 1.22812 1.22836C0.436348 2.02037 0 3.07342 0 4.19344C0.000380205 4.9049 0.181946 5.60454 0.527578 6.22641C0.53209 6.20074 0.535195 6.17484 0.540176 6.14918L0.56584 6.29766C0.552539 6.27439 0.540879 6.25014 0.527578 6.22641C0.457083 6.62951 0.421404 7.03793 0.420938 7.44715C0.420938 8.40352 0.608145 9.33094 0.977988 10.2044C1.3343 11.0481 1.84506 11.8052 2.49521 12.4556C3.14607 13.106 3.90316 13.6172 4.74715 13.9731C5.6202 14.3432 6.54803 14.5306 7.50416 14.5306C7.92035 14.5306 8.33748 14.4926 8.74459 14.4204C8.72086 14.4071 8.69666 14.395 8.6724 14.381L8.82375 14.4076C8.79762 14.4125 8.77125 14.4156 8.74465 14.4204C9.37385 14.7765 10.0845 14.9638 10.8075 14.9639C11.9273 14.9639 12.9799 14.5284 13.7719 13.736C14.5641 12.9445 15 11.8912 15 10.7712C14.9996 10.057 14.8169 9.35483 14.4691 8.73111V8.73105ZM7.5324 11.785C5.01609 11.785 3.89033 10.5479 3.89033 9.62074C3.89033 9.14514 4.24143 8.81186 4.72529 8.81186C5.80213 8.81186 5.52322 10.3581 7.5324 10.3581C8.56102 10.3581 9.12896 9.79957 9.12896 9.22805C9.12896 8.88434 8.9594 8.50324 8.28211 8.33625L6.04395 7.77756C4.24143 7.32551 3.9143 6.35109 3.9143 5.4351C3.9143 3.53332 5.70492 2.81924 7.38656 2.81924C8.93561 2.81924 10.7617 3.67535 10.7617 4.81629C10.7617 5.3052 10.3383 5.58949 9.85465 5.58949C8.93561 5.58949 9.10477 4.31742 7.25355 4.31742C6.33492 4.31742 5.82609 4.73344 5.82609 5.32869C5.82609 5.92283 6.5516 6.11262 7.18154 6.25605L8.83822 6.62379C10.6529 7.02809 11.113 8.08758 11.113 9.08549C11.113 10.631 9.92666 11.785 7.5324 11.785ZM8.6724 14.381C8.69666 14.395 8.72086 14.4071 8.74465 14.4204C8.77125 14.4156 8.79762 14.4125 8.82375 14.4075L8.6724 14.381ZM14.456 8.81045C14.461 8.78408 14.4643 8.75748 14.4691 8.73111C14.456 8.70732 14.4444 8.68289 14.4304 8.65934L14.456 8.81045ZM0.540176 6.14918C0.535195 6.17484 0.53209 6.20074 0.527578 6.22641C0.540879 6.25014 0.552539 6.27439 0.56584 6.29766L0.540176 6.14918ZM6.2335 0.529746C6.2093 0.516211 6.18434 0.504551 6.15967 0.491484C6.13471 0.496465 6.10951 0.50168 6.08455 0.506426L6.2335 0.529746Z" fill="#00AFF0"/>
</g>
<defs>
<clipPath id="clip0_1_657">
<rect width="15" height="15" fill="white"/>
</clipPath>
</defs>
</svg>
