<svg width="15" height="15" viewBox="0 0 15 15" fill="none" xmlns="http://www.w3.org/2000/svg">
<path id="Vector" d="M7.5 0C3.35661 0 0 3.3571 0 7.5C0 11.6429 3.3571 15 7.5 15C11.6434 15 15 11.6429 15 7.5C15 3.3571 11.6429 0 7.5 0ZM11.1837 5.13823L9.95274 10.9389C9.86177 11.3502 9.61694 11.4498 9.27532 11.2563L7.40032 9.87435L6.49597 10.7453C6.39629 10.845 6.31161 10.9297 6.11806 10.9297L6.25113 9.02129L9.72581 5.88194C9.87726 5.74887 9.69242 5.67339 9.49258 5.80645L5.19823 8.50984L3.34742 7.9321C2.94532 7.80532 2.93613 7.53 3.4321 7.33645L10.6631 4.5479C10.9989 4.42694 11.2921 4.62968 11.1832 5.13774L11.1837 5.13823Z" fill="#40B3E0"/>
</svg>
